<?xml version="1.0" encoding="utf-8"?>
<!-- Generator: Adobe Illustrator 22.0.0, SVG Export Plug-In . SVG Version: 6.00 Build 0)  -->
<svg version="1.1" id="Layer_1" xmlns="http://www.w3.org/2000/svg" xmlns:xlink="http://www.w3.org/1999/xlink" x="0px" y="0px"
	 viewBox="0 0 200 200" style="enable-background:new 0 0 200 200;" xml:space="preserve">
<style type="text/css">
	.st0{fill:#E74031;}
</style>
<g>
	<ellipse transform="matrix(0.3949 -0.9187 0.9187 0.3949 -34.855 143.4605)" class="st0" cx="91.5" cy="98.2" rx="12.1" ry="19"/>
	<polygon class="st0" points="56.8,171.1 60.4,171.1 58.6,167.2 	"/>
	<polygon class="st0" points="120.8,171.1 124.5,171.1 122.7,167.2 	"/>
	<path class="st0" d="M106.2,164.3c-2.3,0-4.2,1.9-4.2,4.2c0,2.3,1.9,4.2,4.2,4.2c2.3,0,4.2-1.9,4.2-4.2
		C110.4,166.2,108.5,164.3,106.2,164.3z"/>
	<path class="st0" d="M192,0.4c0.2,2.1,0.1,4.2-1,6.3c-2.2,4.1-5.9,5.5-10.2,6.3c0.4,1,0.6,1.8,0.9,2.6c1.8,4.8,0.6,10-3.1,13.2
		c-3.4,3-9.2,3.5-13.5,1.2c-1.4-0.8-1.6-0.5-1.8,1.1c-0.3,2.1-0.5,4.4-1.4,6.3c-1.9,4.4-6.7,6.9-11.6,6.6c-5-0.4-8.8-3.3-10.4-7.9
		c-0.1-0.3-0.3-0.5-0.6-1c-0.6,0.8-1.1,1.4-1.7,2c-1.2,1.2-2.3,2.7-3.8,3.6c-8.2,5-18.3-0.7-18.4-10.4c0-1,0-2,0-3.1
		c-5.7,1.8-10.4,1.1-14-3.3c-3.5-4.3-3.3-9.2-0.8-14.1c-6.1-1.6-9.3-4.7-9.7-9.4H0.4v199.2h199.2V0.4H192z M48.1,163.5h-6.4v2.9h5.6
		v3.9h-5.6v3.3h6.4v3.8h-11v-17.8h11V163.5z M63.4,177.4l-1.1-2.3H55l-1.1,2.3h-4.7l8.3-17.8h2.1l8.4,17.8H63.4z M74.4,177.4h-4.7
		v-13.1h-4.6v-4.6h14v4.6h-4.7V177.4z M79.8,177.4c-1.1,0-1.9-0.9-1.9-1.9c0-1.1,0.8-1.9,1.9-1.9c1.1,0,1.9,0.8,1.9,1.9
		C81.7,176.5,80.9,177.4,79.8,177.4z M90.5,177.4c-4.9,0-8.9-4-8.9-8.9c0-4.9,4-8.9,8.9-8.9c2.4,0,4.6,1,6.3,2.6l-3.3,3.3
		c-0.7-0.7-1.8-1.2-3-1.2c-2.4,0-4.2,1.8-4.2,4.2c0,2.4,1.8,4.2,4.2,4.2c1.2,0,2.2-0.4,3-1.2l3.3,3.3
		C95.2,176.4,93,177.4,90.5,177.4z M106.2,177.4c-4.9,0-8.9-4-8.9-8.9c0-4.9,4-8.9,8.9-8.9c4.9,0,8.9,4,8.9,8.9
		C115.1,173.4,111.1,177.4,106.2,177.4z M127.4,177.4l-1.1-2.3H119l-1.1,2.3h-4.7l8.3-17.8h2.1l8.4,17.8H127.4z M139.7,177.4
		c-4.9,0-8.9-4-8.9-8.9c0-4.9,4-8.9,8.9-8.9c2.4,0,4.6,1,6.3,2.6l-3.3,3.3c-0.7-0.7-1.8-1.2-3-1.2c-2.4,0-4.2,1.8-4.2,4.2
		c0,2.4,1.8,4.2,4.2,4.2c1.2,0,2.2-0.4,3-1.2l3.3,3.3C144.4,176.3,142.1,177.4,139.7,177.4z M162.6,177.4H158v-6.8h-5.6v6.8h-4.7
		v-17.8h4.7v6.3h5.6v-6.3h4.7V177.4z M162.5,128.7c-1.1,2.7-4.2,3.9-6.9,2.7l-18.7-9c-9.3,15.7-26.5,26.3-46,26.3
		c-29.5,0-53.5-24-53.5-53.5s24-53.5,53.5-53.5c15.5,0,30.2,6.7,40.4,18.4c1.6,1.8,1.4,4.6-0.4,6.2c-1.8,1.6-4.6,1.4-6.2-0.4
		c-8.5-9.8-20.8-15.4-33.8-15.4c-24.7,0-44.8,20.1-44.8,44.8c0,24.7,20.1,44.8,44.8,44.8c16.1,0,30.2-8.6,38.1-21.3l-16.5-7.9
		c-5.2,6.9-16.7,8.6-28,3.8c-12.7-5.4-19.5-16.9-15.6-26c3.9-9.1,16.9-12,29.6-6.6c11.3,4.8,17.9,14.4,16.5,22.9l17.5,6.7
		c2-5.1,3.1-10.5,3.1-16.3c0-2.4,2-4.4,4.4-4.4c2.4,0,4.4,2,4.4,4.4c0,6.8-1.3,13.4-3.7,19.4l19.1,7.2
		C162.4,123,163.6,126.1,162.5,128.7z"/>
</g>
</svg>
