<?xml version="1.0" encoding="utf-8"?>
<!-- Generator: Adobe Illustrator 23.0.1, SVG Export Plug-In . SVG Version: 6.00 Build 0)  -->
<svg version="1.1" id="Layer_1" xmlns="http://www.w3.org/2000/svg" xmlns:xlink="http://www.w3.org/1999/xlink" x="0px" y="0px"
	 viewBox="0 0 185.24 164.03" style="enable-background:new 0 0 185.24 164.03;" xml:space="preserve">
<style type="text/css">
	.st0{fill:#C84033;}
</style>
<path class="st0" d="M180.65,121.4l-27.68-10.52c3.41-8.73,5.3-18.22,5.3-28.15c0-3.5-2.84-6.35-6.35-6.35
	c-3.5,0-6.35,2.84-6.35,6.35c0,8.34-1.6,16.31-4.47,23.64l-25.44-9.67c2.09-12.33-7.58-26.24-23.96-33.28
	c-18.4-7.91-37.29-3.72-42.99,9.55c-5.7,13.27,4.25,29.85,22.65,37.76c16.38,7.04,33.13,4.48,40.64-5.52l23.94,11.52
	c-11.45,18.58-31.98,30.99-55.36,30.99c-35.84,0-65-29.16-65-65c0-35.84,29.16-65,65-65c18.82,0,36.71,8.15,49.07,22.37
	c2.3,2.65,6.31,2.93,8.95,0.63c2.65-2.3,2.92-6.31,0.63-8.95C124.45,14.78,103.08,5.04,80.58,5.04c-42.84,0-77.69,34.85-77.69,77.69
	c0,42.84,34.85,77.69,77.69,77.69c28.41,0,53.3-15.34,66.84-38.16l27.22,13.1c3.86,1.66,8.32-0.13,9.98-3.98
	C186.28,127.53,184.5,123.06,180.65,121.4z M106.87,97.96c-3.77,8.77-18.56,11.19-32.29,5.29c-13.73-5.9-22.15-18.3-18.38-27.07
	c3.77-8.77,18.56-11.19,32.29-5.29C102.22,76.8,110.64,89.19,106.87,97.96z"/>
</svg>
