<?xml version="1.0" encoding="utf-8"?>
<!-- Generator: Adobe Illustrator 23.0.1, SVG Export Plug-In . SVG Version: 6.00 Build 0)  -->
<svg version="1.1" id="Layer_1" xmlns="http://www.w3.org/2000/svg" xmlns:xlink="http://www.w3.org/1999/xlink" x="0px" y="0px"
	 viewBox="0 0 878.74 147.37" style="enable-background:new 0 0 878.74 147.37;" xml:space="preserve">
<style type="text/css">
	.st0{fill:#C84033;}
</style>
<g>
	<g>
		<path class="st0" d="M8.09,10.89h76.13v26.63H40.27v19.93h38.88v27.12H40.27v22.54h43.95v26.3H8.09V10.89z"/>
		<path class="st0" d="M92.16,133.41l57.17-122.52h14.54l57.66,122.52h-32.18l-7.52-16.01h-50.15l-7.36,16.01H92.16z M144.26,90.29
			h24.99l-12.41-26.96L144.26,90.29z"/>
		<path class="st0" d="M201.46,10.73h96.54v32.02H265.5v90.66h-32.19V42.75h-31.84V10.73z"/>
		<path class="st0" d="M302.95,107.28c7.36,0,12.9,5.55,12.9,12.9c0,7.36-5.55,13.23-12.9,13.23c-7.36,0-12.9-5.88-12.9-13.23
			C290.05,112.83,295.6,107.28,302.95,107.28z"/>
		<path class="st0" d="M397.54,51.41c-5.05-5.07-12.25-8.01-20.58-8.01c-16.67,0-28.75,12.09-28.75,28.75
			c0,16.66,12.08,28.75,28.75,28.75c8.33,0,15.52-2.94,20.58-8.17l22.88,22.55c-11.11,11.11-26.47,18.13-43.46,18.13
			c-33.81,0-61.25-27.44-61.25-61.26c0-33.81,27.44-61.26,61.25-61.26c16.83,0,32.02,6.7,43.12,17.8L397.54,51.41z"/>
		<path class="st0" d="M484.84,10.89c33.81,0,61.27,27.61,61.27,61.43c0,33.81-27.45,61.09-61.27,61.09
			c-33.81,0-61.09-27.28-61.09-61.09C423.75,38.5,451.03,10.89,484.84,10.89z M484.84,42.91c-16,0-29.08,13.07-29.08,29.24
			c0,16.01,13.07,29.24,29.08,29.24c16.18,0,29.24-13.23,29.24-29.24C514.08,55.98,501.02,42.91,484.84,42.91z"/>
		<path class="st0" d="M533.81,133.41l57.17-122.52h14.55l57.66,122.52H631l-7.52-16.01h-50.15l-7.36,16.01H533.81z M585.92,90.29
			h24.99l-12.42-26.96L585.92,90.29z"/>
		<path class="st0" d="M736.53,51.33c-5.05-5.07-12.25-8.01-20.58-8.01c-16.67,0-28.76,12.09-28.76,28.75
			c0,16.66,12.09,28.75,28.76,28.75c8.33,0,15.52-2.94,20.58-8.17l22.88,22.55c-11.12,11.11-26.47,18.13-43.46,18.13
			c-33.81,0-61.27-27.44-61.27-61.26c0-33.81,27.46-61.26,61.27-61.26c16.83,0,32.02,6.7,43.12,17.81L736.53,51.33z"/>
		<path class="st0" d="M803.22,10.89v43.62h38.88V10.89h32.18v122.52H842.1V86.69h-38.88v46.72h-32.19V10.89H803.22z"/>
	</g>
</g>
</svg>
